<?xml version="1.0" encoding="UTF-8"?>
<svg width="37px" height="46px" viewBox="0 0 37 46" version="1.1" xmlns="http://www.w3.org/2000/svg" xmlns:xlink="http://www.w3.org/1999/xlink">
    <!-- Generator: Sketch 50.2 (55047) - http://www.bohemiancoding.com/sketch -->
    <title>brand</title>
    <desc>Created with Sketch.</desc>
    <defs></defs>
    <g id="Page-1" stroke="none" stroke-width="1" fill="none" fill-rule="evenodd" stroke-linecap="round">
        <g id="Opportunity-indicator-1" transform="translate(-620.000000, -557.000000)" stroke="#044B35" stroke-width="1.68">
            <g id="brand" transform="translate(621.000000, 558.000000)">
                <path d="M1.40077821,7.70588235 C5.00700735,3.20900516 10.1074303,0.451945069 15.5819637,0.0401689823 C24.2403389,-0.532754289 29.9054353,5.19647842 30.8171206,6.17044799" id="Shape"></path>
                <path d="M0.700389105,16.1122995 C1.64461143,14.5548866 7.17505646,5.74910368 16.5579286,4.95973004 C26.2699296,4.14368837 32.5989169,12.4961148 33.618677,13.8828523" id="Shape"></path>
                <path d="M0.700389105,21.1789486 C1.94071999,20.246314 3.0707805,19.1732588 4.06839006,17.9808449 C5.79733247,15.9127377 6.02468575,14.7827411 7.16673945,13.2956228 C9.74693484,9.910963 13.7071118,8.89289996 14.3045751,8.74898529 C19.8139267,7.41111188 24.2552467,10.4066691 24.6094948,10.651857 C27.9689256,13.0245654 30.0346104,16.8443449 30.1928684,20.9764021 C30.2563159,24.7981361 28.24186,26.3438862 29.0455274,29.8671305 C29.5622608,31.8703284 30.6681785,33.6690148 32.2178988,35.026738" id="Shape"></path>
                <path d="M0.700389105,27.8746427 C3.04033766,26.248497 5.08498213,24.2391172 6.74696312,21.9323561 C8.95639087,18.8366421 9.1538518,16.9601305 11.6407922,15.1790348 C13.3460368,13.9172299 15.4281971,13.2601993 17.5539467,13.313125 C20.4864757,13.4772919 23.1733378,14.9930687 24.817307,17.4107054 C28.120775,22.5737626 22.8800551,28.1343858 26.1088082,34.2887077 C27.0573622,36.0196922 28.4373732,37.4798546 30.1167315,38.5294118" id="Shape"></path>
                <path d="M0,33.9920109 C5.92533785,30.2667584 9.28393949,26.4199729 11.2663336,23.561304 C12.8609868,21.2574599 14.2426554,18.5890167 16.8967699,18.2455537 C18.9872433,18.0186248 21.0145751,19.0264901 22.0411646,20.803032 C22.756574,22.2191563 22.4780558,24.021016 20.856097,26.9272413 C17.4483451,33.0408826 11.473857,37.9497613 6.39499597,41.3315508" id="Shape"></path>
                <path d="M1.40077821,37.828877 C5.20008709,35.3284081 8.66611066,32.3640406 11.7169908,29.0057849 C13.5840022,26.9432649 15.286561,24.7404296 16.8093385,22.4171123" id="Shape"></path>
                <path d="M32.9182879,16.8128342 C34.5872113,21.2458893 34.7715424,26.2412968 33.4352841,30.8235294" id="Shape"></path>
                <path d="M21.6272117,32.9251337 C20.9531313,34.5099628 20.828765,36.2706475 21.273506,37.932631 C21.8803862,39.9910582 23.300748,41.7212239 25.2140078,42.7326203" id="Shape"></path>
                <path d="M10.5058366,42.8271848 C11.214024,41.9963467 12.0043198,41.2647988 12.860411,40.6476415 C14.1274466,39.7379721 14.9721369,39.1091402 15.8854584,39.249559 C17.2844769,39.4632397 18.4459261,41.4962592 18.9105058,44.1336898" id="Shape"></path>
            </g>
        </g>
    </g>
</svg>