<?xml version="1.0" encoding="UTF-8"?>
<svg width="47px" height="47px" viewBox="0 0 47 47" version="1.1" xmlns="http://www.w3.org/2000/svg" xmlns:xlink="http://www.w3.org/1999/xlink">
    <!-- Generator: Sketch 50.2 (55047) - http://www.bohemiancoding.com/sketch -->
    <title>custom</title>
    <desc>Created with Sketch.</desc>
    <defs></defs>
    <g id="Page-1" stroke="none" stroke-width="1" fill="none" fill-rule="evenodd">
        <g id="Opportunity-indicator-1" transform="translate(-831.000000, -557.000000)" fill="#044B35" fill-rule="nonzero">
            <g id="custom" transform="translate(831.000000, 557.000000)">
                <path d="M23.454486,14.0106952 C18.2336095,14.0154167 14.0046376,18.2516473 14.0077839,23.4736118 C14.0109301,28.6955763 18.2450037,32.9267057 23.4658821,32.9251333 C28.6867606,32.9235608 32.9182858,28.6898818 32.9182879,23.4679164 C32.9088651,18.2454084 28.6759134,14.0154001 23.454486,14.0106952 Z M23.454486,31.2235218 C19.1790258,31.2187992 15.7160242,27.7499726 15.717598,23.4736201 C15.7191719,19.1972675 19.184726,15.7309921 23.4601885,15.7294178 C27.735651,15.7278436 31.2037556,19.1915661 31.2084773,23.4679164 C31.2037595,27.7478793 27.7335607,31.2149736 23.454486,31.214971 L23.454486,31.2235218 Z" id="Shape"></path>
                <path d="M46.0728268,18.7743316 L40.4587676,18.7743316 C40.0819163,17.3743309 39.531603,16.0269285 38.8206226,14.7634516 L42.7880049,10.7952406 C43.1188109,10.462391 43.1188109,9.92482632 42.7880049,9.59197667 L37.3616498,4.16448809 C37.0288696,3.83361303 36.4914172,3.83361303 36.1586371,4.16448809 L32.1656587,8.10709772 C30.9031195,7.39037803 29.5560082,6.83422022 28.1556164,6.45154302 L28.1556164,0.853378707 C28.1556164,0.382070661 27.7736255,0 27.3024159,0 L19.6236114,0 C19.1524018,0 18.7704109,0.382070661 18.7704109,0.853378707 L18.7704109,6.49421196 C17.3788397,6.87889053 16.0404406,7.43500116 14.7859646,8.14976665 L10.7929863,4.1559543 C10.4602061,3.82507924 9.92275373,3.82507924 9.58997358,4.1559543 L4.16361842,9.58344288 C3.83281246,9.91629254 3.83281246,10.4538572 4.16361842,10.7867069 L8.18219276,14.8061206 C7.47962463,16.0546268 6.93235758,17.384391 6.55257981,18.7657978 L0.853200497,18.7657978 C0.381990874,18.7657978 0,19.1478684 0,19.6191765 L0,27.2995848 C0,27.7708929 0.381990874,28.1529635 0.853200497,28.1529635 L6.56964382,28.1529635 C6.95105978,29.5256635 7.4982975,30.8467592 8.19925677,32.0870394 L4.15508642,36.1320544 C3.82428046,36.4649041 3.82428046,37.0024688 4.15508642,37.3353184 L9.58144158,42.762807 C9.91422173,43.0936821 10.4516741,43.0936821 10.7844543,42.762807 L14.8286246,38.7177919 C16.0704109,39.425676 17.3941916,39.9787994 18.7704109,40.3648128 L18.7704109,46.0824502 C18.7704109,46.5537582 19.1524018,46.9358289 19.6236114,46.9358289 L27.3024159,46.9358289 C27.7736255,46.9358289 28.1556164,46.5537582 28.1556164,46.0824502 L28.1556164,40.3904142 C29.5370966,40.0116167 30.8667099,39.4641831 32.1144667,38.7604609 L36.133041,42.7798746 C36.4658212,43.1107496 37.0032736,43.1107496 37.3360537,42.7798746 L42.7624089,37.352386 C43.0932149,37.0195363 43.0932149,36.4819717 42.7624089,36.149122 L38.7694306,32.1553097 C39.4821658,30.8996503 40.0380613,29.5612101 40.4246395,28.1700311 L46.0728268,28.1700311 C46.5440364,28.1700311 46.9260273,27.7879605 46.9260273,27.3166524 L46.9260273,19.636244 C46.928305,19.408439 46.839421,19.18918 46.6791673,19.02729 C46.5189137,18.8653999 46.3005957,18.7743202 46.0728268,18.7743316 Z M45.2196263,26.4547399 L39.7762072,26.4547399 C39.3720789,26.4439335 39.015845,26.7182909 38.9230067,27.1118415 C38.5238201,28.779227 37.8613842,30.372286 36.9606455,31.8310258 C36.7752722,32.1679909 36.8381621,32.5873445 37.1142216,32.8550802 L40.9706879,36.712352 L36.7473454,40.9792455 L32.8482191,37.1219737 C32.5701662,36.8415554 32.1360645,36.7886051 31.7987825,36.9939669 C30.3463604,37.8869688 28.7586812,38.5383126 27.0976478,38.9226028 C26.7041793,39.0154605 26.4298792,39.3717689 26.4406834,39.7759815 L26.4406834,45.2290715 L20.4682799,45.2290715 L20.4682799,39.6821099 C20.4790841,39.2778972 20.204784,38.9215889 19.8113155,38.8287312 C18.1590066,38.4380286 16.5803159,37.7839453 15.1357768,36.8915615 C14.800401,36.6840015 14.366502,36.7333987 14.0863402,37.0110345 L10.1786819,40.919509 L5.95533947,36.6526155 L9.87152975,32.8550802 C10.1491076,32.5748599 10.1984944,32.1408703 9.99097782,31.8054244 C9.09904491,30.3604482 8.44511644,28.7814718 8.05421269,27.1289091 C7.96137438,26.7353585 7.60514042,26.461001 7.20101219,26.4718075 L1.70640099,26.4718075 L1.70640099,20.4981565 L7.25220422,20.4981565 C7.65633245,20.508963 8.01256641,20.2346055 8.10540472,19.8410549 C8.49161704,18.180313 9.14269635,16.5926155 10.0336378,15.1389383 C10.2210218,14.7783711 10.1282146,14.3356598 9.81180571,14.0807487 L5.92974345,10.1978755 L10.1530859,5.93098201 L14.0778082,9.81385513 C14.3593152,10.095873 14.7984896,10.1454676 15.1357768,9.93332815 C16.591134,9.02641045 18.1848608,8.36341999 19.8539756,7.97055712 C20.247444,7.87769942 20.5217441,7.52139105 20.5109399,7.11717842 L20.5109399,1.70675741 L26.4833434,1.70675741 L26.4833434,7.13424599 C26.4725392,7.53845863 26.7468394,7.894767 27.1403078,7.9876247 C28.81759,8.37577549 30.4200406,9.03591545 31.8841026,9.94186193 C32.2154366,10.1338154 32.6340443,10.0814785 32.9079432,9.81385513 L36.7388134,5.98218474 L40.9621558,10.2490783 L37.1142216,14.0210122 C36.8366438,14.3012325 36.7872569,14.7352221 36.9947735,15.070668 C37.9009428,16.5348252 38.5609737,18.1376803 38.9486027,19.8154536 C39.041441,20.2090042 39.3976749,20.4833616 39.8018032,20.4725552 L45.2196263,20.4725552 L45.2196263,26.4547399 Z" id="Shape"></path>
            </g>
        </g>
    </g>
</svg>