<?xml version="1.0" encoding="UTF-8"?>
<svg width="42px" height="47px" viewBox="0 0 42 47" version="1.1" xmlns="http://www.w3.org/2000/svg" xmlns:xlink="http://www.w3.org/1999/xlink">
    <!-- Generator: Sketch 50.2 (55047) - http://www.bohemiancoding.com/sketch -->
    <title>Group</title>
    <desc>Created with Sketch.</desc>
    <defs></defs>
    <g id="Page-1" stroke="none" stroke-width="1" fill="none" fill-rule="evenodd">
        <g id="Opportunity-indicator-1" transform="translate(-155.000000, -557.000000)" fill="#044B35" fill-rule="nonzero">
            <g id="Group" transform="translate(155.000000, 557.000000)">
                <polygon id="Shape" points="38.3837198 7.22089675 38.3837198 6.13776224 35.9618025 6.13776224 38.3103284 3.82707528 37.5030226 3.1049856 35.2278881 5.41567256 35.2278881 3.03277664 34.1270166 3.03277664 34.1270166 7.22089675"></polygon>
                <rect id="Rectangle-path" transform="translate(40.536291, 0.878169) rotate(45.000000) translate(-40.536291, -0.878169) " x="39.9858601" y="0.336607296" width="1.10086095" height="1.08312413"></rect>
                <rect id="Rectangle-path" transform="translate(39.000340, 2.411238) rotate(45.000000) translate(-39.000340, -2.411238) " x="38.4499095" y="1.86967588" width="1.10086095" height="1.08312413"></rect>
                <polygon id="Shape" points="3.52278881 3.82707528 5.87131469 6.13776224 3.44939738 6.13776224 3.44939738 7.22089675 7.70610053 7.22089675 7.70610053 3.03277664 6.60522903 3.03277664 6.60522903 5.41567256 4.33009458 3.1049856"></polygon>
                <rect id="Rectangle-path" transform="translate(2.807905, 2.401966) rotate(135.056720) translate(-2.807905, -2.401966) " x="2.25747413" y="1.86040399" width="1.10086149" height="1.08312466"></rect>
                <rect id="Rectangle-path" transform="translate(1.257672, 0.908208) rotate(45.056720) translate(-1.257672, -0.908208) " x="0.707241559" y="0.366645961" width="1.10086149" height="1.08312466"></rect>
                <path d="M21.4302986,7.07647882 L21.4302986,4.26032908 L22.9715187,4.26032908 C23.9256074,4.26032908 24.6595217,3.46603044 24.6595217,2.59952283 L24.6595217,2.31068696 C24.6595217,1.37197038 23.8522159,0.649880708 22.9715187,0.649880708 L18.8615984,0.649880708 C17.9075098,0.649880708 17.1735955,1.44417935 17.1735955,2.31068696 L17.1735955,2.52731386 C17.1735955,3.46603044 17.9809012,4.18812012 18.8615984,4.18812012 L20.4028185,4.18812012 L20.4028185,7.00426985 C9.3941035,7.36531469 0.660522903,16.1748087 0.660522903,26.9339449 C0.660522903,37.9097079 9.76106067,46.7914109 20.8431671,46.7914109 C31.9986651,46.7914109 41.0258114,37.837499 41.0258114,26.9339449 C41.0258114,16.1748087 32.2922308,7.36531469 21.4302986,7.07647882 Z M18.1276841,2.52731386 L18.1276841,2.31068696 C18.1276841,1.94964212 18.4212498,1.73301522 18.7148156,1.73301522 L22.8247359,1.73301522 C23.191693,1.73301522 23.4118673,2.02185109 23.4118673,2.31068696 L23.4118673,2.52731386 C23.4118673,2.8883587 23.1183016,3.1049856 22.8247359,3.1049856 L18.7148156,3.1049856 C18.4212498,3.17719457 18.1276841,2.8883587 18.1276841,2.52731386 Z M20.8431671,45.7804854 C10.2748007,45.7804854 1.76139441,37.3320362 1.76139441,27.0061538 C1.76139441,16.6080625 10.3481921,8.2318223 20.8431671,8.2318223 C31.4115336,8.2318223 39.9249399,16.6802715 39.9249399,27.0061538 C39.9249399,37.3320362 31.4115336,45.7804854 20.8431671,45.7804854 Z" id="Shape"></path>
                <rect id="Rectangle-path" transform="translate(16.873498, 12.383470) rotate(75.013222) translate(-16.873498, -12.383470) " x="15.6258248" y="11.8418943" width="2.49534612" height="1.08315074"></rect>
                <rect id="Rectangle-path" transform="translate(13.146387, 13.856107) rotate(59.999272) translate(-13.146387, -13.856107) " x="11.8987604" y="13.3145512" width="2.49525385" height="1.08311068"></rect>
                <rect id="Rectangle-path" transform="translate(9.988101, 16.266344) rotate(45.000000) translate(-9.988101, -16.266344) " x="8.74045833" y="15.7247824" width="2.49528481" height="1.08312413"></rect>
                <path d="M20.8431671,10.6147182 L20.2560357,10.6147182 L20.2560357,24.2622131 C19.6689042,24.406631 19.1551642,24.6954669 18.7148156,25.1287207 L6.67862046,18.3410777 L6.53183759,18.7743316 C5.06400892,21.2294364 4.33009458,24.0455862 4.33009458,26.9339449 C4.33009458,35.8878568 11.7426294,43.2531715 20.9165586,43.2531715 C29.9437049,43.2531715 37.4296311,35.9600658 37.4296311,26.9339449 C37.4296311,17.9800329 29.9437049,10.6147182 20.8431671,10.6147182 Z M20.8431671,25.3453476 C21.7972558,25.3453476 22.5311701,26.0674373 22.5311701,27.0061538 C22.5311701,27.9448704 21.7972558,28.6669601 20.8431671,28.6669601 C19.8890785,28.6669601 19.1551642,27.9448704 19.1551642,27.0061538 C19.1551642,26.0674373 19.9624699,25.3453476 20.8431671,25.3453476 Z M20.8431671,42.170037 C12.3297608,42.170037 5.35757465,35.3101851 5.35757465,26.9339449 C5.35757465,24.47884 5.94470612,22.0237351 7.19236049,19.7852571 L18.274467,26.0674373 C18.2010755,26.3562731 18.1276841,26.645109 18.1276841,26.9339449 C18.1276841,28.4503332 19.3753385,29.6778856 20.9165586,29.6778856 C22.4577787,29.6778856 23.7054331,28.4503332 23.7054331,26.9339449 C23.7054331,25.6341835 22.7513444,24.551049 21.5036901,24.2622131 L21.5036901,11.7700617 C29.7969221,12.0588976 36.4021511,18.7743316 36.4021511,27.0061538 C36.3287596,35.3101851 29.3565734,42.170037 20.8431671,42.170037 Z" id="Shape"></path>
            </g>
        </g>
    </g>
</svg>