<?xml version="1.0" encoding="UTF-8"?>
<svg width="52px" height="48px" viewBox="0 0 52 48" version="1.1" xmlns="http://www.w3.org/2000/svg" xmlns:xlink="http://www.w3.org/1999/xlink">
    <!-- Generator: Sketch 50.2 (55047) - http://www.bohemiancoding.com/sketch -->
    <title>innovation</title>
    <desc>Created with Sketch.</desc>
    <defs></defs>
    <g id="Page-1" stroke="none" stroke-width="1" fill="none" fill-rule="evenodd">
        <g id="Opportunity-indicator-1" transform="translate(-381.000000, -553.000000)" fill="#FFFFFF" fill-rule="nonzero">
            <g id="innovation" transform="translate(381.000000, 553.000000)">
                <g id="Group">
                    <path d="M25.9627119,0.218516266 C20.6005195,0.218516266 15.5964283,2.19635515 11.9247339,5.5731241 C10.6595154,4.49764734 9.03129838,3.83853283 7.24540796,3.83853283 C3.25103146,3.83853283 0,7.08714776 0,11.078566 C0,14.2011518 1.9941156,16.8706377 4.77366723,17.8849513 C3.66967596,22.4527449 4.44600512,28.0168032 7.15106671,32.3461633 C9.83320081,36.6386715 14.0699773,39.7156421 18.8116452,41.0945366 C19.3287831,44.5839997 22.3299881,47.2787316 25.9627119,47.2787316 C29.5954356,47.2787316 32.5966406,44.5839997 33.1137786,41.0945366 C37.8554465,39.7156421 42.0922229,36.6386715 44.774357,32.3461633 C47.4794186,28.0168032 48.2557478,22.4527449 47.1517565,17.8849513 C49.9313081,16.8706377 51.9254237,14.2011518 51.9254237,11.078566 C51.9254237,7.08714776 48.6743923,3.83853283 44.6800158,3.83853283 C42.8941253,3.83853283 41.2659083,4.49764734 40.0006898,5.5731241 C36.3274406,2.1846257 31.3346934,0.218516266 25.9627119,0.218516266 Z M25.9627119,1.42518845 C31.0159432,1.42518845 35.7126376,3.2714512 39.1516185,6.42156548 C38.0856753,7.68302843 37.4346078,9.30357892 37.4346078,11.078566 C37.4346078,15.0699781 40.6856393,18.3185991 44.6800158,18.3185991 C45.1270218,18.3185991 45.5569879,18.2645408 45.981925,18.1866193 C46.9963866,22.402572 46.2479456,27.6857793 43.7366033,31.7051187 C41.2932651,35.6154865 37.4855122,38.4967916 33.1892516,39.8501559 C33.0870171,35.9468809 29.8929164,32.7986653 25.9627119,32.7986653 C22.0325073,32.7986653 18.8384067,35.9468809 18.7361722,39.8501559 C14.4399115,38.4967916 10.6321586,35.6154865 8.18882046,31.7051187 C5.67747813,27.6857793 4.92903715,22.402572 5.94349872,18.1866193 C6.36843586,18.2645408 6.79840191,18.3185991 7.24540796,18.3185991 C11.2397845,18.3185991 14.4908159,15.0699781 14.4908159,11.078566 C14.4908159,9.30357892 13.8397484,7.68302843 12.7738052,6.42156548 C16.2115478,3.28224669 20.9217289,1.42518845 25.9627119,1.42518845 Z M7.24540796,5.04520502 C10.5871664,5.04520502 13.2832479,7.73928168 13.2832479,11.078566 C13.2832479,14.4178442 10.5871664,17.1119269 7.24540796,17.1119269 C3.90364951,17.1119269 1.20756799,14.4178442 1.20756799,11.078566 C1.20756799,7.73928168 3.90364951,5.04520502 7.24540796,5.04520502 Z M44.6800158,5.04520502 C48.0217742,5.04520502 50.7178557,7.73928168 50.7178557,11.078566 C50.7178557,14.4178442 48.0217742,17.1119269 44.6800158,17.1119269 C41.3382573,17.1119269 38.6421758,14.4178442 38.6421758,11.078566 C38.6421758,7.73928168 41.3382573,5.04520502 44.6800158,5.04520502 Z M25.9627119,34.0053375 C29.3044703,34.0053375 32.0005518,36.6994142 32.0005518,40.0386985 C32.0005518,40.1462015 31.9871979,40.2531289 31.9816836,40.3592208 C31.8937553,40.5070932 31.8731622,40.6854349 31.9250788,40.8494313 C31.9249806,40.8557157 31.9249806,40.8620012 31.9250788,40.8682856 C31.5235607,43.813808 29.0235351,46.0720594 25.9627119,46.0720594 C22.8955175,46.0720594 20.3938678,43.8039477 20.0003449,40.8494313 C20.0467221,40.6911841 20.0262687,40.520865 19.9437401,40.378075 C19.9375646,40.2658569 19.9248719,40.1525027 19.9248719,40.0386985 C19.9248719,36.6994142 22.6209534,34.0053375 25.9627119,34.0053375 Z" id="Shape"></path>
                </g>
            </g>
        </g>
    </g>
</svg>